<?xml version="1.0" encoding="UTF-8"?>
<svg width="48px" height="48px" viewBox="0 0 48 48" version="1.1" xmlns="http://www.w3.org/2000/svg" xmlns:xlink="http://www.w3.org/1999/xlink">
    <title>Group</title>
    <g id="Page-1" stroke="none" stroke-width="1" fill="none" fill-rule="evenodd">
        <g id="Group">
            <rect id="Rectangle" x="0" y="0" width="48" height="48"></rect>
            <g id="siruhay-logo" transform="translate(3.2813, 0.375)" fill="#FFFFFF" fill-opacity="0.9">
                <path d="M20.7602598,40.9722634 C19.8182776,40.0242513 19.7688444,38.2592025 20.765946,37.2621206 C24.703085,33.324697 28.6541644,29.4023154 32.5912118,25.4649836 C33.827317,24.228789 34.1275847,22.9015171 32.5912118,21.3649414 L18.8162235,35.1120336 C16.6641825,37.2596441 16.5728365,40.8846713 18.8187914,43.1306968 L20.7603515,45.0723972 L38.3420633,27.4893232 C40.5881099,25.2431142 40.4944711,21.8725168 38.3446312,19.7224298 L32.5129807,13.8903579 L24.9244798,21.4794073 C23.7510144,22.6529574 23.8374996,24.4446049 24.9111814,25.592657 L32.5129807,17.9903083 L36.394817,21.8724251 C37.3938446,22.8714331 37.3421185,24.3892063 36.3947253,25.3366681 L20.7601681,40.9722634 L20.7602598,40.9722634 Z M13.1279201,33.3812879 L20.7915339,25.7170286 C21.8652157,26.8651724 21.9518843,28.6565447 20.7782355,29.8302783 L13.1278284,37.48133 L3.18937016,27.5421536 C0.943323547,25.2958529 1.03687061,21.9252555 3.18680221,19.7751685 L9.01845268,13.9430966 C10.9657907,15.8866314 12.9046911,17.8296159 14.8501032,19.7751685 C17.0000348,21.9252555 17.0937652,25.2958529 14.8475352,27.5421536 L12.9059751,29.483854 C11.6119991,28.1897845 10.3181149,26.8958067 9.02413888,25.6017372 C7.78803368,24.3655427 7.48776595,23.0382708 9.02413888,21.5016951 L12.9059751,25.3838119 C13.8478656,24.4357998 13.8972988,22.9224291 12.9001972,21.9253472 C11.6062212,20.6312777 10.3123369,19.3372999 9.01836097,18.0432304 L5.13652475,21.9253472 C4.13749715,22.924447 4.18903975,24.4420367 5.13661646,25.3896819 L13.1279201,33.3814713 L13.1279201,33.3812879 Z M24.6531933,13.617034 C25.5951755,12.6690219 25.644517,11.1556513 24.6475071,10.1585693 C23.3535311,8.86449982 22.0596468,7.57052205 20.7656709,6.27645256 L16.8838346,10.1585693 C15.8849905,11.1573939 15.9363496,12.6752589 16.8839263,13.622904 L20.7656709,17.5049291 C21.9905871,18.7299338 21.9662832,20.4043638 20.7656709,21.6050629 L14.9365883,15.7755591 C12.6905417,13.5292585 12.7841805,10.158661 14.9341121,8.00857407 L20.7656709,2.17650216 C22.7130089,4.12003696 24.652001,6.06302144 26.5973213,8.00857407 C28.7473446,10.158661 28.8409834,13.5292585 26.5947534,15.7755591 L24.6531933,17.7172596 C23.3592173,16.4231901 22.065333,15.1292123 20.7713571,13.8351428 C19.5352519,12.5989483 19.2349841,11.2716764 20.7713571,9.73510069 L24.6531933,13.6172174 L24.6531933,13.617034 Z M12.7967451,15.5425918 C11.1073953,12.8221934 11.4583802,9.30695437 13.8453894,6.91968095 L20.7644786,0 L27.6859523,6.91968095 C30.0351759,9.26916596 30.4123906,12.7112129 28.8131944,15.4129005 L32.5129807,11.7129386 L39.4332622,18.6337201 C42.2302277,21.4309794 42.2317868,25.7769214 39.4306943,28.5782163 L20.7602598,47.25 L17.729977,44.2195899 C15.7272444,42.2168044 15.1566074,39.2944398 16.0163232,36.7701375 L13.1277367,39.6589328 L2.10055573,28.6310467 C-0.700536787,25.8297517 -0.698977669,21.4838098 2.09798777,18.6864588 L9.0171687,11.7668696 C10.2776695,13.0248016 11.53762,14.2831922 12.7965617,15.5426835 L12.7967451,15.5425918 Z" id="Shape"></path>
            </g>
        </g>
    </g>
</svg>